HIERARCHY
ROOT hip
{
	OFFSET 0.000000 0.000000 0.000000 
	CHANNELS 6 Xposition Yposition Zposition Xrotation Zrotation Yrotation
	JOINT abdomen
	{
		OFFSET 0.000000 3.402643 0.000000 
		CHANNELS 3 Xrotation Zrotation Yrotation
		JOINT chest
		{
			OFFSET 0.000000 8.438565 -0.680529 
			CHANNELS 3 Xrotation Zrotation Yrotation
			JOINT neck
			{
				OFFSET 0.000000 10.207942 -0.272212 
				CHANNELS 3 Xrotation Zrotation Yrotation
				JOINT head
				{
					OFFSET 0.000000 3.130431 0.000000 
					CHANNELS 3 Xrotation Zrotation Yrotation
					End Site
					{
						OFFSET 0.000000 3.130435 0.000000 
					}
				}
			}
			JOINT lCollar
			{
				OFFSET 3.470700 6.669187 -0.816635 
				CHANNELS 3 Yrotation Zrotation Xrotation
				JOINT lShldr
				{
					OFFSET 3.198488 0.000000 0.000000 
					CHANNELS 3 Zrotation Yrotation Xrotation
					JOINT lForeArm
					{
						OFFSET 10.139888 0.000000 0.000000 
						CHANNELS 3 Yrotation Zrotation Xrotation
						JOINT lHand
						{
							OFFSET 8.370511 0.000000 0.000000 
							CHANNELS 3 Zrotation Yrotation Xrotation
							End Site
							{
								OFFSET 4.083176 0.000000 0.000000 
							}
						}
					}
				}
			}
			JOINT rCollar
			{
				OFFSET -3.470700 6.669187 -0.816635 
				CHANNELS 3 Yrotation Zrotation Xrotation
				JOINT rShldr
				{
					OFFSET -3.198488 0.000000 0.000000 
					CHANNELS 3 Zrotation Yrotation Xrotation
					JOINT rForeArm
					{
						OFFSET -10.139888 0.000000 0.000000 
						CHANNELS 3 Yrotation Zrotation Xrotation
						JOINT rHand
						{
							OFFSET -8.370511 0.000000 0.000000 
							CHANNELS 3 Zrotation Yrotation Xrotation
							End Site
							{
								OFFSET -4.083176 0.000000 0.000000 
							}
						}
					}
				}
			}
		}
	}
	JOINT lThigh
	{
		OFFSET 5.308129 -1.633274 1.361059 
		CHANNELS 3 Xrotation Zrotation Yrotation
		JOINT lShin
		{
			OFFSET -2.041588 -20.007561 0.000000 
			CHANNELS 3 Xrotation Zrotation Yrotation
			JOINT lFoot
			{
				OFFSET 0.000000 -19.190928 -1.224953 
				CHANNELS 3 Xrotation Yrotation Zrotation
				End Site
				{
					OFFSET 0.000000 -2.449906 4.627600 
				}
			}
		}
	}
	JOINT rThigh
	{
		OFFSET -5.308129 -1.633274 1.361059 
		CHANNELS 3 Xrotation Zrotation Yrotation
		JOINT rShin
		{
			OFFSET 2.041588 -20.007561 0.000000 
			CHANNELS 3 Xrotation Zrotation Yrotation
			JOINT rFoot
			{
				OFFSET 0.000000 -19.190928 -1.224953 
				CHANNELS 3 Xrotation Yrotation Zrotation
				End Site
				{
					OFFSET 0.000000 -2.449906 4.627600 
				}
			}
		}
	}
}
MOTION
Frames: 6
Frame Time: 0.033000
1.250669 43.433247 -18.388100 0.879606 -2.284887 33.138397 21.132536 -0.141974 0.290620 -20.839844 0.000000 0.000000 4.057800 2.063923 5.082029 -2.520832 -1.255077 0.218355 -4.754609 -0.109184 -0.002653 -81.738243 -0.613439 38.292953 -2.626682 -0.049420 -14.485113 -6.156805 -3.386733 0.009645 4.754609 0.109184 -0.002672 83.903114 -0.646441 -4.513813 2.853827 -0.594760 29.896086 -0.333960 3.697323 -0.008595 6.293228 9.027435 6.475510 -5.446192 -3.473019 11.679267 -0.717012 0.030136 -0.490885 2.203948 -9.258921 -6.341918 -4.338315 3.578311 -6.890434 1.212547 -0.318639 4.439338 
1.343046 43.431713 -18.296791 1.065374 -2.382401 33.861591 21.142441 -0.132396 0.210557 -20.839844 0.000000 0.000000 3.901413 2.128046 4.535482 -2.520832 -1.255077 0.218355 -4.754609 -0.109184 -0.002653 -82.757652 -0.912515 40.826645 -2.633232 -0.035418 -13.733267 -6.541292 -4.137160 0.065587 4.754609 0.109184 -0.002672 85.505508 -0.974243 -4.457546 2.892834 -0.630743 33.196907 -0.275095 4.302751 0.003426 6.020247 9.036582 5.572976 -5.432734 -3.462160 11.863408 -0.757591 0.021709 -0.274315 2.195994 -9.351135 -5.263241 -4.342007 3.483456 -8.789979 1.227484 -0.319962 4.521859 
1.389769 43.430698 -18.208412 1.309899 -2.557926 34.482170 21.142488 -0.118499 0.174050 -20.839844 0.000000 0.000000 3.758122 2.291273 4.171516 -2.520832 -1.255077 0.218355 -4.754609 -0.109184 -0.002653 -82.774818 -1.484753 43.297146 -2.627518 -0.010526 -12.122140 -6.295882 -5.374848 0.159084 4.754609 0.109184 -0.002672 86.247993 -0.961585 -4.374015 2.947559 -0.667087 37.454845 -0.402687 5.348050 0.011802 5.641557 9.117822 4.915217 -5.439292 -3.464654 11.932071 -0.702148 0.022266 -0.158903 2.049333 -9.359917 -4.511564 -4.303352 3.405837 -10.267718 1.221961 -0.307846 4.620007 
1.379087 43.424107 -18.116493 1.515574 -2.870091 34.865108 21.142475 -0.100283 0.181094 -20.839844 0.000000 0.000000 3.531058 2.728876 4.007890 -2.520832 -1.255077 0.218355 -4.754609 -0.109184 -0.002653 -82.058487 -2.283049 45.350231 -2.630983 0.012711 -10.110520 -5.319801 -6.769373 0.238850 4.754609 0.109184 -0.002672 86.591042 -0.325453 -4.180486 2.989579 -0.697468 40.970707 -0.755627 6.207922 0.013571 5.240820 9.419210 4.311690 -5.423267 -3.452876 12.184463 -0.537417 0.025064 -0.346106 1.747177 -9.138205 -4.400753 -4.135318 3.385188 -10.743460 1.108836 -0.311589 4.568000 
1.356230 43.416996 -18.014473 1.574755 -3.221442 35.008732 21.152163 -0.068639 0.235216 -20.839844 0.000000 0.000000 3.238023 3.298422 3.953429 -2.520832 -1.255077 0.218355 -4.754609 -0.109184 -0.002653 -80.838974 -3.124821 46.506432 -2.637356 0.033846 -8.841141 -4.133738 -7.853001 0.268962 4.754609 0.109184 -0.002672 86.829391 1.056449 -3.909845 3.009656 -0.715046 42.591839 -1.257222 7.468624 0.010468 4.999377 9.843638 3.988814 -5.430261 -3.445606 12.370330 -0.329398 0.034508 -0.676893 1.484033 -8.749146 -4.919813 -3.864581 3.405931 -10.286168 0.934462 -0.297012 4.367316 
1.368956 43.419529 -17.918007 1.545844 -3.494825 34.924858 21.181377 -0.037010 0.289375 -20.839844 0.000000 0.000000 2.987502 3.722296 4.092785 -2.520832 -1.255077 0.218355 -4.754609 -0.109184 -0.002653 -79.228683 -3.909734 46.333675 -2.636005 0.042833 -8.255281 -3.295462 -8.536853 0.273970 4.754609 0.109184 -0.002672 86.921837 2.944675 -2.928536 3.013169 -0.718837 43.031265 -1.888894 10.830710 -0.006618 4.975810 10.149269 4.210786 -5.422496 -3.452669 12.203966 -0.179936 0.042499 -0.861670 1.336733 -8.394876 -5.522592 -3.654685 3.441643 -9.482524 0.871136 -0.297329 4.003497 
